HIERARCHY
ROOT Hips
{
	OFFSET -0.001795 -0.223333 0.028219
	CHANNELS 6 Xposition Yposition Zposition Zrotation Yrotation Xrotation 
	JOINT LeftUpLeg
	{
		OFFSET 0.069520 -0.091406 -0.006815
		CHANNELS 3 Zrotation Yrotation Xrotation
		JOINT LeftLeg
		{
			OFFSET 0.034277 -0.375199 -0.004496
			CHANNELS 3 Zrotation Yrotation Xrotation
			JOINT LeftFoot
			{
				OFFSET -0.013596 -0.397961 -0.043693
				CHANNELS 3 Zrotation Yrotation Xrotation
				JOINT LeftToe
				{
					OFFSET 0.026358 -0.055791 0.119288
					CHANNELS 3 Zrotation Yrotation Xrotation
					End Site
					{
						OFFSET 0.000000 0.000000 0.000000
					}
				}
			}
		}
	}
	JOINT RightUpLeg
	{
		OFFSET -0.067670 -0.090522 -0.004320
		CHANNELS 3 Zrotation Yrotation Xrotation
		JOINT RightLeg
		{
			OFFSET -0.038290 -0.382569 -0.008850
			CHANNELS 3 Zrotation Yrotation Xrotation
			JOINT RightFoot
			{
				OFFSET 0.015774 -0.398415 -0.042312
				CHANNELS 3 Zrotation Yrotation Xrotation
				JOINT RightToe
				{
					OFFSET -0.025372 -0.048144 0.123348
					CHANNELS 3 Zrotation Yrotation Xrotation
					End Site
					{
						OFFSET 0.000000 0.000000 0.000000
					}
				}
			}
		}
	}
	JOINT Spine
	{
		OFFSET -0.002533 0.108963 -0.026696
		CHANNELS 3 Zrotation Yrotation Xrotation
		JOINT Spine1
		{
			OFFSET 0.005487 0.135180 0.001092
			CHANNELS 3 Zrotation Yrotation Xrotation
			JOINT Spine2
			{
				OFFSET 0.001457 0.052922 0.025425
				CHANNELS 3 Zrotation Yrotation Xrotation
				JOINT Neck
				{
					OFFSET -0.002778 0.213870 -0.042857
					CHANNELS 3 Zrotation Yrotation Xrotation
					JOINT Head
					{
						OFFSET 0.005152 0.064970 0.051349
						CHANNELS 3 Zrotation Yrotation Xrotation
						End Site
						{
							OFFSET 0.000000 0.000000 0.000000
						}
					}
				}
				JOINT LeftShoulder
				{
					OFFSET 0.078845 0.121749 -0.034090
					CHANNELS 3 Zrotation Yrotation Xrotation
					JOINT LeftArm
					{
						OFFSET 0.090977 0.030469 -0.008868
						CHANNELS 3 Zrotation Yrotation Xrotation
						JOINT LeftForeArm
						{
							OFFSET 0.259612 -0.012772 -0.027456
							CHANNELS 3 Zrotation Yrotation Xrotation
							JOINT LeftHand
							{
								OFFSET 0.249234 0.008986 -0.001171
								CHANNELS 3 Zrotation Yrotation Xrotation
								End Site
								{
									OFFSET 0.000000 0.000000 0.000000
								}
							}
						}
					}
				}
				JOINT RightShoulder
				{
					OFFSET -0.081759 0.118833 -0.038615
					CHANNELS 3 Zrotation Yrotation Xrotation
					JOINT RightArm
					{
						OFFSET -0.096012 0.032551 -0.009143
						CHANNELS 3 Zrotation Yrotation Xrotation
						JOINT RightForeArm
						{
							OFFSET -0.253742 -0.013329 -0.021401
							CHANNELS 3 Zrotation Yrotation Xrotation
							JOINT RightHand
							{
								OFFSET -0.255298 0.007772 -0.005559
								CHANNELS 3 Zrotation Yrotation Xrotation
								End Site
								{
									OFFSET 0.000000 0.000000 0.000000
								}
							}
						}
					}
				}
			}
		}
	}
}
MOTION
Frames: 11
Frame Time: 0.050000
-0.043566 0.942668 -0.007679 -0.701059 -5.036747 3.762755 3.964160 -0.068188 -0.465460 1.515305 -0.033815 -3.070118 5.528275 13.083024 12.328869 0.000000 0.000000 0.000000 -4.944746 0.391784 -3.235754 4.179970 -0.369388 2.700414 -6.404973 -17.255510 11.671389 0.000000 0.000000 0.000000 9.065046 0.997854 -8.947954 -7.577479 2.530038 -19.720344 -2.079589 18.121229 26.859381 15.133673 -3.011080 -34.297980 0.000000 0.000000 0.000000 -15.421514 -24.032135 7.525081 -57.517732 2.549145 -9.714569 -48.075018 -78.885824 40.458111 0.000000 0.000000 0.000000 16.060584 12.401511 8.819283 66.319244 51.379521 25.610914 -129.003396 46.613299 -61.650903 0.000000 0.000000 0.000000 
-0.044530 0.942424 -0.008129 -0.998956 -4.492585 3.654541 4.582008 -0.059606 -0.192087 1.228721 0.013468 -3.510560 5.242645 12.659213 12.156353 0.000000 0.000000 0.000000 -4.644800 0.378969 -3.209778 4.455484 -0.406588 3.002160 -6.651812 -17.656769 11.742119 0.000000 0.000000 0.000000 9.028862 0.933230 -8.527235 -7.514068 2.508509 -19.967019 -2.339246 17.363484 26.826695 14.123147 -2.658361 -33.758334 0.000000 0.000000 0.000000 -16.072004 -24.939265 8.099331 -57.385074 -2.317327 -7.354828 -61.580043 -85.208629 57.903112 0.000000 0.000000 0.000000 19.081129 10.125650 8.256530 64.186168 40.545394 16.040994 -131.480514 53.299150 -73.703093 0.000000 0.000000 0.000000 
-0.045882 0.942649 -0.008396 -1.161628 -3.621711 3.916121 4.754787 -0.087870 -0.483856 1.564144 0.002127 -3.801816 4.810230 12.048573 12.178090 0.000000 0.000000 0.000000 -4.113913 0.349000 -2.936220 4.173235 -0.388217 2.210329 -7.020588 -18.271317 12.118332 0.000000 0.000000 0.000000 8.607325 0.868823 -8.416124 -7.353301 2.482656 -19.817032 -2.779886 15.853867 26.141030 13.756804 -2.807439 -32.646207 0.000000 0.000000 0.000000 -16.837255 -24.415721 8.096450 -55.924552 -8.749243 -4.092667 173.092031 -84.947447 -171.461933 0.000000 0.000000 0.000000 22.210126 8.342064 7.674063 63.106999 28.273309 7.259139 -125.785793 59.876008 -76.585873 0.000000 0.000000 0.000000 
-0.047058 0.942930 -0.008556 -1.591132 -1.853372 3.906447 5.732385 -0.135807 -0.949806 1.131408 0.030052 -3.563107 3.962067 10.798825 11.777016 0.000000 0.000000 0.000000 -3.487089 0.303160 -2.570307 4.410985 -0.437428 1.981158 -7.795137 -19.519296 12.812297 0.000000 0.000000 0.000000 8.288912 0.758507 -7.891335 -6.921489 2.390060 -19.844165 -2.959136 14.029309 25.533899 12.090661 -2.126738 -32.074945 0.000000 0.000000 0.000000 -16.013897 -25.766731 8.916447 -56.330209 -18.257148 0.308027 145.667243 -74.881578 -134.393571 0.000000 0.000000 0.000000 24.830893 6.272733 6.747874 63.728363 16.439501 0.098201 -117.152131 67.432305 -77.214754 0.000000 0.000000 0.000000 
-0.048051 0.942775 -0.008844 -1.690277 -0.597139 4.106783 6.196738 -0.199783 -2.054980 0.837328 0.011130 -2.489600 3.438639 9.986235 11.307953 0.000000 0.000000 0.000000 -3.168051 0.243750 -1.886030 4.432006 -0.456314 0.601089 -8.325566 -20.346077 13.305623 0.000000 0.000000 0.000000 8.050834 0.628388 -7.071197 -7.271587 2.466220 -20.811479 -2.429104 12.561828 25.917354 11.454974 -1.832793 -32.607880 0.000000 0.000000 0.000000 -14.064976 -26.908613 9.558621 -56.130632 -28.540572 5.057718 145.891685 -63.525169 -124.476789 0.000000 0.000000 0.000000 27.462827 3.691041 5.392778 64.372033 7.828293 -5.040765 -106.445896 71.971850 -71.938040 0.000000 0.000000 0.000000 
-0.048717 0.942731 -0.009022 -1.621272 0.987907 4.120818 6.171294 -0.240280 -2.581822 1.082765 -0.018708 -2.215524 2.690525 8.868746 11.038977 0.000000 0.000000 0.000000 -2.919208 0.187198 -1.292286 4.291932 -0.459734 -0.186595 -9.067223 -21.487044 13.852139 0.000000 0.000000 0.000000 7.155410 0.475348 -6.146771 -6.775535 2.371009 -20.523951 -2.830276 9.695915 24.833731 10.484038 -1.594336 -32.650291 0.000000 0.000000 0.000000 -12.789424 -28.305056 10.498404 -54.428645 -36.877883 8.957362 142.971861 -55.560664 -110.851649 0.000000 0.000000 0.000000 29.098470 3.400469 4.684034 65.117719 1.415449 -8.496561 -99.378157 74.406324 -69.267214 0.000000 0.000000 0.000000 
-0.049070 0.942247 -0.009211 -1.818578 0.691185 4.453148 6.719103 -0.247062 -2.750692 0.502301 0.041013 -2.465647 2.863737 9.110544 11.003663 0.000000 0.000000 0.000000 -2.438049 0.209710 -1.649830 3.800749 -0.404847 -0.280598 -8.959332 -21.330621 13.674024 0.000000 0.000000 0.000000 6.904491 0.440306 -5.916957 -6.404270 2.241631 -21.093524 -2.704861 8.695505 25.484712 10.379280 -1.545228 -34.006297 0.000000 0.000000 0.000000 -12.458376 -29.651759 11.374425 -52.562487 -40.276736 10.162608 146.273585 -51.216088 -109.646793 0.000000 0.000000 0.000000 30.543359 2.451831 3.692750 66.463665 -1.839265 -10.470590 -109.385543 76.888106 -82.285772 0.000000 0.000000 0.000000 
-0.049306 0.942143 -0.009324 -1.713501 -1.259953 4.942366 6.322625 -0.253188 -3.466144 0.705710 -0.022023 -1.399860 3.893975 10.636910 11.200648 0.000000 0.000000 0.000000 -2.619707 0.243365 -1.903513 3.514168 -0.365934 -1.181305 -7.992954 -19.824912 13.170202 0.000000 0.000000 0.000000 6.533718 0.382235 -5.362196 -5.946197 2.065417 -21.608793 -2.300245 8.579465 25.089906 10.652357 -1.663347 -35.392237 0.000000 0.000000 0.000000 -12.618919 -28.167926 11.017565 -51.713369 -38.257675 9.027016 150.777061 -51.683388 -116.520625 0.000000 0.000000 0.000000 29.785624 3.070379 3.413740 67.292090 -0.656754 -9.697944 -123.461284 74.560345 -95.110946 0.000000 0.000000 0.000000 
-0.049266 0.941987 -0.009440 -1.966204 -3.232527 4.980821 6.426128 -0.206728 -2.960220 0.662891 -0.013282 -1.593475 4.865348 12.077431 11.527641 0.000000 0.000000 0.000000 -2.471710 0.310036 -2.707490 3.310307 -0.321404 -0.209402 -7.104436 -18.416106 12.462668 0.000000 0.000000 0.000000 7.176652 0.450856 -5.666615 -5.528626 1.925721 -21.398439 -2.856097 9.093159 24.596477 11.228116 -2.075645 -35.024565 0.000000 0.000000 0.000000 -13.435915 -27.909223 11.181739 -51.618061 -30.420549 5.445316 156.506885 -57.648245 -131.692737 0.000000 0.000000 0.000000 29.074602 3.991287 3.660745 66.145429 4.575213 -6.562895 -137.088315 70.971699 -106.946804 0.000000 0.000000 0.000000 
-0.049069 0.942110 -0.009501 -2.182414 -6.405863 4.933721 5.872799 -0.144362 -2.261021 1.417940 -0.102447 -1.481763 6.454364 14.418128 12.282464 0.000000 0.000000 0.000000 -2.357411 0.352174 -3.159288 2.842335 -0.251854 0.076229 -5.610592 -15.979376 11.697620 0.000000 0.000000 0.000000 7.863502 0.499178 -5.587103 -5.137747 1.759468 -21.548500 -3.080412 10.413973 24.461525 12.716034 -2.857605 -35.127322 0.000000 0.000000 0.000000 -15.777396 -26.362669 10.955007 -51.249423 -19.412952 0.578910 174.005496 -69.111836 -165.078282 0.000000 0.000000 0.000000 27.388140 5.794973 4.373030 65.351567 12.820489 -1.712995 -148.013427 64.683175 -114.687014 0.000000 0.000000 0.000000 
-0.048902 0.942269 -0.009661 -2.660260 -8.959286 4.729588 5.779994 -0.086850 -1.770452 1.939595 -0.197541 -0.847346 7.787128 16.342421 12.868296 0.000000 0.000000 0.000000 -2.293116 0.377118 -3.423941 3.125513 -0.250524 0.529091 -4.384105 -13.943880 11.250940 0.000000 0.000000 0.000000 8.693510 0.594004 -5.765231 -4.665182 1.588915 -20.735590 -3.432566 11.781821 24.085169 13.950347 -3.481734 -35.074806 0.000000 0.000000 0.000000 -17.860288 -26.168435 11.224817 -51.581634 -10.186124 -3.273120 -131.650064 -79.175802 127.777066 0.000000 0.000000 0.000000 25.891420 8.347231 5.692684 61.840037 22.186447 3.400727 -147.638647 56.377756 -105.595394 0.000000 0.000000 0.000000 
